<svg version="1" xmlns="http://www.w3.org/2000/svg" width="1036" height="1036" viewBox="0 0 777.000000 777.000000"><path d="M380 98.6c-49.8 12.5-44.4 11.6-75.5 12.4-28.7.8-30.8 1-39.6 5.5-6.2 3.2-13.8 9.5-18.9 15.8-2.8 3.4-6.2 7.4-7.5 8.9-3 3.4-6 9.3-6.9 13.4-.6 2.6-3.1 5-13.6 12.9-7.2 5.3-14.5 11.5-16.3 13.8-7.6 9.4-15 24.1-23.5 46.2-2.7 7.1-6.2 15.7-7.7 19l-2.7 6 7.5-7.3c4.1-3.9 7.7-7.2 8-7.2.3 0-.9 2.6-2.6 5.7-5.2 9.3-10.4 22.2-13.2 32.9-4.6 17.8-4.4 34.6.7 51.4 2.2 7.1 8.9 23.3 9.4 22.7.2-.2.6-4.6 1-9.8.4-5.2 1-11.2 1.4-13.4l.8-4 .1 3.6c.2 7 6.8 23.9 9.3 23.9 1 0 1.1.9-1.2-8-2.4-9-2.6-26.7-.6-46 1.5-15.3 3.1-19.3 4.1-10.5.4 3.3 1.7 13.4 3 22.5 1.4 9.1 2.9 20.1 3.5 24.5.7 4.4 2 10 3 12.5s2.3 7.2 2.9 10.5c1.2 6.4 5.8 17 9.2 21.3l2.2 2.7-.7-2.5c-.4-1.4-1.2-16-1.8-32.5-.8-26.1-.7-31.1.7-38.8 1.8-10.1 5.4-19.5 9.3-24.8 10.8-14.4 17.6-22.9 17.9-22.5.3.3-1.5 6.5-4.1 13.8-2.5 7.3-5.1 16.7-5.7 20.8-1.3 8.5-.6 21.3 1.5 28l1.4 4.5.1-6c.3-14.6 6.9-32.5 15-40.4 6-5.8 12.2-8.4 24.2-10.2 20.3-2.9 31.6-10.4 40.6-26.9 2-3.6 4.5-8.1 5.7-10l2.1-3.5.7 4.2c.9 5.4 3.9 11.9 7.8 16.8 5.1 6.5 15.1 16.4 18.9 18.7 2 1.3 5.5 3.7 7.9 5.5 6.2 4.7 21.5 12 30.1 14.4 4 1.1 11.5 4 16.5 6.4 10.4 5.1 14.2 5.9 7.5 1.7-5.6-3.7-14.1-12.3-19.9-20.3-2.5-3.4-6.8-8.7-9.6-11.8-7-7.8-15.8-20.7-19.5-28.5-3.2-6.9-4.7-16.2-3.5-21.2.7-2.6 1-2.1 4 5.7 5.1 13.6 10.9 22.3 27.5 41.2 15.9 18.1 28.5 26.1 50.8 32.2 7 1.9 12.8 3.4 12.9 3.2.2-.1-3.2-2-7.4-4.2-5.9-3-10-6.2-17.2-13.4-14.6-14.6-21.4-27.5-27.9-52.2-1.6-6.4-3.2-14.5-3.5-18l-.6-6.4 2.4 6.5c6.2 17 12 26.2 27.5 44 15 17.2 29.3 29.8 41.2 35.9 9.1 4.8 17.5 8.1 20.8 8.1 1 0 .4-1.2-1.6-3.3-5.5-5.7-17.3-24.8-24.9-40.1-7.3-14.8-9.3-20.2-5.5-15.5 1 1.3 6.7 6.4 12.6 11.4 7.9 6.7 12.9 12 19.3 20.5 20.8 27.6 41.1 43.7 63.2 50.1 6.3 1.8 8 2.7 7.6 3.9-2.3 6.8-4.6 15.9-4.6 18 0 1.4-.7 3.5-1.5 4.7-1.3 1.8-1.3 2.3-.2 3 2.6 1.5 2.6 6.5 0 13.3-1.5 3.6-3.2 7.2-4 8.1-.7.8-1.3 2.4-1.3 3.5 0 1-1.3 4.3-2.9 7.1-2.9 5.2-2.9 5.3-.8 5.3 4.1 0 12.3-4.7 16.4-9.4 2.7-3 4.7-6.7 5.9-10.6 1.5-5.1 2.1-6 4.1-6 1.9 0 2.9 1.1 4.8 5.2 1.4 2.9 2.8 7.3 3.1 9.8 1.1 7.1 2.1 2.3 2.2-11 .1-6.3.7-14.3 1.4-17.7.8-4.5.9-7.5.1-10.8-.6-2.5-.6-4.5-.2-4.5 1.4 0 5.8 7.3 6.5 10.8 1.2 6.2 2.3 2.1 1.9-7.6-.4-10.9-2-21-4-25.9l-1.4-3.3 2.7 1.4c6.8 3.5 16.5 5.6 25.9 5.6h9.5l-7.8-5.2-7.7-5.3 3.4-.8c14.8-3.8 24.9-7.1 24.1-7.9-.6-.6-4.5-1.4-8.8-1.9-14.3-1.6-19.8-5.8-34.1-25.7-8.9-12.4-15.5-25.6-20.7-41.4-2.5-7.5-6.6-17.8-9.2-22.9-9.1-18.1-26.3-47.5-31.7-54-10.5-12.6-30.8-25.3-47.7-29.8-4.1-1.1-12.4-2.5-18.5-3.1-6-.6-13-1.7-15.5-2.5-6.4-2.1-16.6-4.3-23-5-3-.3-7.3-.8-9.5-1.2-2.2-.3-9.5-.5-16.2-.5h-12.2l5-6.4c2.8-3.5 4.7-6.4 4.2-6.3-.4.1-8.7 2.1-18.3 4.5z"/><path d="M339.5 333.5c-3 3-3.1 5.4-.4 8.9 5.1 6.5 15.3.1 11.4-7.3-2.4-4.8-7.2-5.5-11-1.6zM407.6 332.6c-4.3 4.2-4 8.8.9 12 4.5 2.9 10.5-1.2 10.5-7.2 0-2.4-4.7-6.4-7.4-6.4-1.3 0-3.2.7-4 1.6zM193.7 349.5c-.7 1.6.8 2.9 2.3 2 1-.6.2-3.5-1-3.5-.4 0-1 .7-1.3 1.5zM194 359c0 1.3.5 2 1.3 1.7.6-.2 1.2-1 1.2-1.7s-.6-1.5-1.2-1.8c-.8-.2-1.3.5-1.3 1.8zM547.5 360c-.8 1.3.4 3.2 1.6 2.5 1.2-.8 1.2-3.5 0-3.5-.6 0-1.3.4-1.6 1zM217.7 369.3c-.6 1.5 1 3.7 2.6 3.7 1.2 0 .4-4.3-.9-4.7-.6-.2-1.4.3-1.7 1zM536 383c0 .5.9 1 2 1s2-.5 2-1c0-.6-.9-1-2-1s-2 .4-2 1zM196 385.5c0 1.6.6 2.5 1.5 2.5s1.5-.9 1.5-2.5-.6-2.5-1.5-2.5-1.5.9-1.5 2.5zM216 388c0 1.1.5 2 1 2 .6 0 1-.9 1-2s-.4-2-1-2c-.5 0-1 .9-1 2zM542 393.9c0 1.1.5 2.3 1 2.6.6.3 1-.1 1-.9 0-.9 0-1.9.1-2.3 0-.4-.4-.9-1-1.1-.6-.2-1.1.5-1.1 1.7zM533.6 396.9c-.4.7-.5 1.5-.2 1.8.9.9 1.9-.4 1.4-1.8-.4-1.1-.6-1.1-1.2 0zM217 405.5c0 1.4.5 2.5 1 2.5.6 0 1-1.1 1-2.5s-.4-2.5-1-2.5c-.5 0-1 1.1-1 2.5zM522 405.5c0 1.4.5 2.5 1 2.5.6 0 1-.4 1-.9s.3-1.6.6-2.5c.4-1.1.1-1.6-1-1.6-1 0-1.6.9-1.6 2.5zM381 414.8c0 1.5 2.8 4.7 3.5 4 .8-.8-1.3-4.8-2.5-4.8-.6 0-1 .4-1 .8zM346.5 419c-1.5 1.7-1.6 2-.3 2 1.9 0 4.2-2.6 3-3.4-.5-.3-1.7.3-2.7 1.4zM233 421.5c0 1.4.5 2.5 1 2.5.6 0 1-1.1 1-2.5s-.4-2.5-1-2.5c-.5 0-1 1.1-1 2.5zM359.9 419.5c-1.1 1 .3 5.5 1.7 5.5.8 0 1.4-.6 1.4-1.3 0-1.7-2.4-5-3.1-4.2zM370.6 419.9c-.9 1.4 2.2 3.4 4.1 2.6 1.7-.6 1.7-.7-.1-2.1-2.3-1.6-3.3-1.8-4-.5zM326 421c0 .5.5 1 1 1 .6 0 1-.5 1-1 0-.6-.4-1-1-1-.5 0-1 .4-1 1zM391 422.5c0 1.4.5 2.5 1 2.5.6 0 1-1.1 1-2.5s-.4-2.5-1-2.5c-.5 0-1 1.1-1 2.5zM397.5 422c-1.5 1.7-1.6 2-.3 2 1.9 0 4.2-2.6 3-3.4-.5-.3-1.7.3-2.7 1.4zM220.5 424.3c-.8 1.9-.2 3.1 1.3 2.6.5-.2.6-1.3.2-2.4-.7-1.9-.8-1.9-1.5-.2zM337.7 423.7c-.7 1.2 1.1 5.3 2.3 5.3 1.5 0 1.2-3.6-.4-4.9-.8-.7-1.6-.8-1.9-.4zM404.2 425.2c.6 1.8 2.8 2.1 2.8.4 0-.9-.7-1.6-1.6-1.6-.9 0-1.4.5-1.2 1.2zM418.6 426.6c-.4 1.5-.4 2.9-.1 3.2.8.8 2.5-1.9 2.5-4.1 0-2.6-1.7-2-2.4.9zM365.7 427.1c-2.1 1.5-2.5 2.5-1.8 3.2.8.8 1.7.5 3.2-1 3.2-3.1 2-4.9-1.4-2.2zM506.5 426c-.3.5.1 1 .9 1 .9 0 1.6-.5 1.6-1 0-.6-.4-1-.9-1-.6 0-1.3.4-1.6 1zM356 427.9c0 .5.7 1.4 1.5 2.1 1.2 1 1.5 1 1.5-.3 0-.8-.7-1.7-1.5-2.1-.8-.3-1.5-.2-1.5.3zM522.2 428.2c-1.4 1.4-1.6 2.8-.2 2.8.5 0 1.4-.9 2-2 1.2-2.2.1-2.7-1.8-.8zM401.4 429.5c.3.9.6 1.9.6 2.1 0 .2.7.4 1.6.4 2.2 0 1.3-3.4-1-3.8-1.4-.3-1.7 0-1.2 1.3zM411.5 428.9c-.3.5-.1 1.2.5 1.6.5.3 1-.1 1-.9 0-1.8-.6-2.1-1.5-.7zM316 431.6c0 1.4.4 2.3 1 1.9.6-.3 1-1.5 1-2.6 0-1-.4-1.9-1-1.9-.5 0-1 1.2-1 2.6zM434 430c0 .5.5 1 1 1 .6 0 1-.5 1-1 0-.6-.4-1-1-1-.5 0-1 .4-1 1zM331 433c0 1.1.5 2 1 2 .6 0 1-.9 1-2s-.4-2-1-2c-.5 0-1 .9-1 2zM349.4 432.7c-1.2 1.2-1.3 1.8-.4 2.1 1.6.6 4.5-2.4 3.2-3.2-.6-.3-1.8.2-2.8 1.1zM391 432.4c0 1.6 2.8 4.2 3.6 3.3.8-.7-1.4-4.7-2.6-4.7-.6 0-1 .6-1 1.4zM257.2 433.7c.2 1 1.1 1.9 2.1 2.1 2.3.5 2.1-1-.4-2.6-1.8-1.2-2-1.1-1.7.5zM369 434c-1.2 2.3-.3 2.5 2.3.6 2.1-1.6 2.2-2.6.2-2.6-.8 0-1.9.9-2.5 2zM499.4 433.5c-.7 1.7.4 3.7 1.7 3 1.2-.8 1.2-4.5-.1-4.5-.6 0-1.3.7-1.6 1.5zM385 436c0 .5.5 1 1 1 .6 0 1-.5 1-1 0-.6-.4-1-1-1-.5 0-1 .4-1 1zM338.5 438c.3.5 1.3 1 2.1 1s1.4-.5 1.4-1c0-.6-.9-1-2.1-1-1.1 0-1.7.4-1.4 1zM358.5 438c.4.6 1.1.8 1.6.5 1.4-.9 1.1-1.5-.7-1.5-.8 0-1.2.5-.9 1zM410 438c0 .5.7 1 1.5 1s1.5-.5 1.5-1c0-.6-.7-1-1.5-1s-1.5.4-1.5 1zM315 439c0 .5.5 1 1 1 .6 0 1-.5 1-1 0-.6-.4-1-1-1-.5 0-1 .4-1 1zM419 439.5c-.7.9-1 1.8-.7 2.2.8.7 3.7-1.5 3.7-2.8 0-1.4-1.6-1.1-3 .6zM426 438.8c0 1.4 1.1 2.1 2.6 1.5 2.1-.8 1.7-2.3-.6-2.3-1.1 0-2 .4-2 .8zM394.3 440.4c.5 1.2-2.5 1.5-18.6 1.8-17.3.3-19.8.6-25.1 2.7-9.2 3.7-13.4 9.3-14.3 19-.4 4.6-.2 5.9 1.3 7.3 3 2.7 13.2 3.9 37.5 4.5 26.2.7 30.5 0 36.9-5.5l4.2-3.6-.4-6.6c-.5-6.5-1.9-10-6.2-14.8-1.4-1.6-3-2.2-6.2-2.2-3.3 0-4.6-.5-5.4-2-1.2-2.3-4.5-2.8-3.7-.6zm-20.5 12c.4 7.1-.1 7.6-8.5 7.6H359v-6c0-7.1 1.2-8.1 9.5-7.7l5 .2.3 5.9zm18-.5c.4 6.6-.2 7.1-8.5 7.1H377v-5.8c0-3.2.3-6.2.7-6.6.4-.4 3.7-.6 7.3-.4l6.5.3.3 5.4zm16.5-1.8c.9 1.2 1.7 3.2 1.7 4.4 0 2.1-.6 2.4-5.5 3-7.8 1-8.5.5-8.5-5.6v-5.2l5.3.6c3.6.5 5.7 1.3 7 2.8zm-52.3 4.4v5.5h-7.6c-7.2 0-7.5-.1-7.2-2.3.2-1.6 2.1-3.1 6.7-5.5 3.5-1.7 6.8-3.2 7.3-3.2.4 0 .8 2.5.8 5.5zm36.4 8.1c.3.9.6 3.3.6 5.5v3.9h-15v-9.9l5.3-.4c2.8-.2 5.9-.4 6.8-.5.9-.1 2 .5 2.3 1.4zm17.6.8c0 4.2-9.6 10.2-13 8.1-.5-.3-1-2.8-1-5.6V461h7c6.7 0 7 .1 7 2.4zm-36.2 3.8l.3 4.8H359v-8.9l4.8-.4c9.6-.8 9.7-.7 10 4.5zm-17.8.4v4.6l-6.1-.4c-6.6-.5-8.9-2.1-8.9-6.5 0-2.2.3-2.3 7.5-2.3h7.5v4.6zM330.2 442.2c.3.7 1.5 1.5 2.7 1.6 1.6.3 2.2-.1 1.9-1-.3-.7-1.5-1.5-2.7-1.6-1.6-.3-2.2.1-1.9 1zM442 444.5c0 .8.5 1.5 1 1.5.6 0 1-.7 1-1.5s-.4-1.5-1-1.5c-.5 0-1 .7-1 1.5zM237.3 445.3c.4 1 .7 2.3.7 2.8s.5.9 1 .9c1.6 0 1.2-2.6-.7-4.1-1.5-1.2-1.6-1.2-1 .4zM432.2 445.2c.5 1.5 3.5 3.4 4.3 2.7.3-.4.3-1.4-.1-2.3-.7-1.8-4.8-2.3-4.2-.4zM482.2 446.2c.2 1.5 1 2.3 2.3 2.3 3 0 2.7-3.9-.3-4.3-2-.3-2.3 0-2 2zM311.5 446c-.4.6-.3 1.6.3 2.2.6.6 1.2.6 1.7-.2.4-.6.3-1.6-.3-2.2-.6-.6-1.2-.6-1.7.2zM259 447.8c0 1.5 2.8 4.7 3.5 4 .8-.8-1.3-4.8-2.5-4.8-.6 0-1 .4-1 .8zM450.6 448.5c.4.8 1.5 1.5 2.5 1.5s1.9-.7 1.9-1.5c0-.9-.9-1.5-2.5-1.5-1.8 0-2.3.4-1.9 1.5zM471.3 451.6c-.3.8-.1 2 .6 2.7.8.8 1.1.4 1.1-1.6 0-3-.7-3.5-1.7-1.1zM434.6 453.9c-.4.7-.5 1.5-.2 1.8.9.9 1.9-.4 1.4-1.8-.4-1.1-.6-1.1-1.2 0zM292 454.8c0 .5.7 1.6 1.6 2.3 1.4 1.2 1.6 1.1 1.3-.5-.4-2-2.9-3.5-2.9-1.8zM504 455.5c.7.8 1.6 1.5 2.1 1.5s.9-.7.9-1.5c0-.9-.9-1.5-2.1-1.5-1.8 0-1.9.2-.9 1.5zM419 456c0 .5.4 1 .9 1 .6 0 1.3-.5 1.6-1 .3-.6-.1-1-.9-1-.9 0-1.6.4-1.6 1zM269 463.5c1.2 1.5 3 1.2 3-.6 0-.5-1-.9-2.1-.9-1.8 0-1.9.2-.9 1.5zM444.4 463.6c.3.9.6 2.2.6 3 0 .8.5 1.4 1 1.4.6 0 1-1.4 1-3 0-2.1-.5-3-1.6-3s-1.4.5-1 1.6zM280.2 465.1c.2.6.8 1 1.3 1s1.1-.4 1.3-1c.2-.6-.4-1.1-1.3-1.1s-1.5.5-1.3 1.1zM475 467c0 .5.5 1 1 1 .6 0 1-.5 1-1 0-.6-.4-1-1-1-.5 0-1 .4-1 1z"/><path d="M243.1 480.8c-4.4 7-10.9 18.8-14.5 26.1-6 12.4-14.5 35.7-16.1 44.3l-.7 3.7 11.4.4c10 .3 12.6.8 22.3 4.2 6.1 2.1 11.2 4 11.4 4.2.4.2-2.4 15.8-3.5 19.5-.4 1.2 0 1.8 1 1.8 2.7 0 8 3.1 10.5 6.2 3 3.7 4 12.2 2.1 16.8-.7 1.7-2.9 4.5-5 6.3-2 1.8-4.7 5.4-5.9 8.2-2.4 5.5-7.7 11.4-13 14.8l-3.5 2.1 2.7.9 2.7.9v40.4l-9.5 2.8c-5.2 1.6-10.3 3.5-11.2 4.2-1.5 1.1 24.1 1.3 154.2 1.3 152.9 0 155.9 0 152.5-1.9-2-1-7-2.8-11.3-4.1l-7.7-2.2.2-20 .3-20.1 3.4-.9 3.5-.9-4.5-2.8c-2.5-1.5-5.8-4.2-7.3-6-2.5-3.1-6.6-10.1-6.6-11.5 0-.6 4.5-.2 11.3 1.1 2 .4 2.7.2 2.7-1.1 0-2.9 3.2-7.8 8.7-13.6l5.4-5.7-2.8-.6c-1.5-.3-4.8-.8-7.3-1.1l-4.6-.7 1.1-8.6 1-8.7 3.5.1c1.9.1 6.1.4 9.3.8 5.6.7 5.8.8 5.3 3.4-1.6 8.6-1.8 13.4-.5 13 .9-.3 1.7-3.1 2.3-7.7l.8-7.3 6.7.7c8.7.9 11.1 1.5 11.1 2.9 0 .6-.4 3.8-1 7-.9 5.7-.9 6 2 9.3 1.6 1.8 3.3 4.5 3.6 5.8 1 4.2 2.1 2.8 2.9-3.8.5-5 1.1-6.6 3.1-8 1.4-1.1 2.7-1.7 2.9-1.5.2.2-.1 3.7-.7 7.8-.9 6.2-1.6 8.1-4.1 10.7-1.7 1.8-2.9 3.5-2.6 3.7.6.6 14.9-10.3 15.4-11.7.8-2.4 8.4-61.1 8-61.6-.3-.2-9.5-1.6-20.5-3.1-11.1-1.5-20.5-3.1-20.9-3.6-.5-.5-2.5-4.9-4.5-9.7-7.2-17.6-22.9-46-31-56l-2.3-2.8-5.9 4.1c-3.2 2.2-7.7 5.2-9.8 6.6-2.1 1.5-9.1 7.1-15.5 12.6-22.1 19-55.6 48.3-60.7 53-2.8 2.7-5.6 4.8-6.1 4.8-.9 0-31.8-32.5-34.8-36.7-1.2-1.6 0-2.7-22.6 21.2-4.1 4.4-8.9 9.5-10.5 11.2l-2.9 3.3-9.4-9.8c-23-23.7-59.4-59.9-62.7-62.2-1.9-1.4-5.4-4-7.7-5.7-2.3-1.8-4.5-3.3-4.9-3.3-.3 0-4.2 5.7-8.7 12.8zm220.9 30v4.8L446 532c-9.9 9-18 16.5-18 16.7 0 .3 18.8-13.4 29.2-21.4 3.1-2.4 5.9-4.3 6.2-4.3.3 0 .5 28.8.6 64v63.9l-3.2.5c-19.4 3.2-74.4 6.1-97.3 5.1-16.5-.7-48.3-3.2-53-4.2-2.6-.5 0-1.7 18-8.8 19.3-7.6 21-8.4 21.7-11.1.4-1.5.6-2.9.4-3.1-.1-.2-5.4 2.1-11.7 5.1-11.4 5.4-23.6 10.4-35.9 14.7-4.7 1.6-7.5 2-10.2 1.5l-3.8-.7V590c0-55.2.3-62.6 2.4-59.1.3.4 6.1 6 12.8 12.2l12.2 11.4-6.1-7.5c-3.4-4.1-9.6-11.6-13.7-16.5l-7.6-9v-7.3c0-4.1.4-7.2.9-7 .4.1 11.1 10.3 23.7 22.5l22.9 22.2 6.3-6.9c3.5-3.9 6.7-7 7.1-7 .5 0 2 1.8 3.5 4l2.6 3.9 7.7-5.3c12.9-8.8 18.4-12 19.1-10.9 1.3 2.1 24.2 25.3 25 25.3.4 0 2.3-1.5 4.2-3.3 1.9-1.8 9.8-8.8 17.5-15.7 13.2-11.8 17.9-16 28.5-25.8 2.5-2.3 4.8-4.2 5.3-4.2.4 0 .7 2.2.7 4.8zm96 32.1c0 .3-1.1 1.4-2.5 2.3-2.1 1.6-3.2 1.7-10.4.6-4.5-.6-8.1-1.4-8.1-1.7 0-.4 1.1-1.3 2.5-2.2 2.1-1.2 3.9-1.3 10.5-.5 4.4.5 8 1.2 8 1.5zm14.2 1.7l6.8.6-2.6 2c-2.2 1.8-3.4 1.9-9.9 1.3-4.1-.4-7.7-1.1-8-1.5-.8-1.2 3.6-4.1 5.5-3.6.8.3 4.5.8 8.2 1.2zm-48.8.7l7 1.2-2.8 1.9c-2.4 1.5-4 1.7-10.5 1.1-4.2-.4-7.9-.9-8.4-1.2-1.2-.7 3.6-4.2 5.8-4.2 1.1 0 5.1.6 8.9 1.2zm18.9 2.2c3.7.4 7 1.1 7.2 1.6.3.4-.6 1.6-2 2.5-2 1.3-3.8 1.5-8.8 1-3.4-.4-7.3-1-8.6-1.3l-2.5-.6 3-2.4c1.6-1.2 3.4-2.1 4-1.9.6.2 4.1.7 7.7 1.1zm37.5 8c-.8 7-1.3 8.4-4 10.8-1.6 1.6-3.1 2.7-3.3 2.5-.1-.2.2-3.9.7-8.3.8-7 1.3-8.4 4-10.8 1.6-1.6 3.1-2.7 3.3-2.5.1.2-.2 3.9-.7 8.3zm-14.5-4.9c4.8.5 5.6.9 4.6 2.1-2.7 3.1-4.9 3.5-13.7 2.3l-8.6-1.3 2.9-2.4c2.2-1.7 3.8-2.2 6-1.9 1.7.3 5.6.8 8.8 1.2zm-46.5 4.1c-2.3 2.3-2.5 2.3-10.6 1.2-4.5-.7-8.2-1.5-8.2-1.8 0-.4 1.1-1.3 2.5-2.2 2.1-1.2 3.9-1.3 10.6-.5l8.1.9-2.4 2.4zm52.2 6.9c-.5 3.8-1 7.4-1 8 0 .5-1.3 2-2.8 3.1l-2.8 2.1 1.2-8.6c1.1-6.9 1.7-9 3.6-10.3 1.2-1 2.4-1.6 2.6-1.5.1.2-.2 3.4-.8 7.2zm-63.5-3.5c7.5 1.1 7.6 1.2 7.1 3.8-.3 1.4-.8 5.5-1.2 9-.6 6.2-.7 6.3-3.3 5.8-1.4-.3-5.5-.9-8.9-1.3l-6.4-.7.6-4.6c.4-2.5.9-6.5 1.3-8.9.6-4.8.2-4.6 10.8-3.1zm20 2.2c4.4.7 8 1.7 8 2.2-.2 5.3-1.9 16.6-2.6 17-.4.3-4.7 0-9.4-.6l-8.6-1.2.6-5.1c1.5-12.1 1.8-13.6 2.9-13.5.6 0 4.7.6 9.1 1.2zm36.1 5.4c-1.3 11-1.6 11.9-4.8 13.8l-3.1 1.8.7-4.9c1.6-11.6 1.8-12.4 4.3-14.4 1.4-1.1 2.8-2 3.1-2 .2 0 .1 2.6-.2 5.7zm-14.3-2.1c6.7.7 6.8.7 6.3 3.3-.3 1.4-.8 5.3-1.2 8.6-.4 3.3-.8 6.2-1 6.5-.1.4-4 .1-8.6-.5l-8.3-1.1.1-5.5c.1-3 .4-7.2.8-9.3.6-3.3 1-3.7 2.9-3.2 1.2.3 5.3.8 9 1.2zm27.3 12.1c-.9 8.8-1.2 9.4-4.2 11.7l-2.6 1.9.5-2.9c.3-1.6.9-5.4 1.3-8.4.6-5.2 2.6-9 4.7-9 .6 0 .7 2.6.3 6.7zm-2.5 21.3c-.9 6.9-1.5 8.4-3.8 10.4-1.6 1.4-2.9 2.3-3.1 2.1-.2-.2.2-4.1.8-8.6.9-7 1.5-8.8 3.7-10.7 1.4-1.3 2.8-2.1 3-1.8.3.3 0 4.1-.6 8.6zm-85.4 4.2c-.3.8-.6.5-.6-.6-.1-1.1.2-1.7.5-1.3.3.3.4 1.2.1 1.9z"/><path d="M355.7 548.1c-.2.8-1.9 8.8-3.6 17.9-3.1 15.7-8.1 38.1-8.7 38.9-.2.2-10.5 1.4-23 2.7-12.5 1.3-22.9 2.6-23.3 3-.3.3 9.9.4 22.7.2 12.7-.3 23.2-.2 23.2.1 0 .3-.7 3.3-1.5 6.6s-1.4 6.4-1.5 6.8c0 .4 2.6.7 5.7.5l5.8-.3 4.9-34.8 4.9-34.7h10.3c7.8 0 10.3-.3 10.7-1.4.3-.8.3-1.7 0-2-.4-.3-5.4-.6-11.2-.6-9.3 0-10.7-.2-12.8-2.1-1.7-1.7-2.3-1.9-2.6-.8zM435 585c-8 2.6-22.3 6.7-31.7 9-13.8 3.5-17.3 4.6-17.3 6 0 .9.2 1.9.5 2.2 1.7 1.7 60.2-17.9 64-21.3 1.5-1.4 0-1-15.5 4.1zM415 606.5c-5.2 1.9-13.6 4.6-18.5 6.2l-9 2.8.5 3.2.5 3.2 15-7c8.3-3.8 16.7-7.7 18.8-8.6 2-.9 3.7-2 3.7-2.5 0-1.1-.2-1-11 2.7zM303.4 470.6c.3.9.6 1.8.6 2 0 .2.5.4 1 .4.6 0 1-.9 1-2 0-1.2-.7-2-1.6-2-1.1 0-1.4.5-1 1.6zM318.7 469.7c-.5.9 1 5.3 1.8 5.3.3 0 .5-1.4.5-3 0-2.8-1.3-4-2.3-2.3zM455.5 470c-.7 1.2.2 3 1.6 3 .5 0 .9-.9.9-2 0-2.1-1.5-2.7-2.5-1zM467 470.5c0 .8.5 1.5 1 1.5.6 0 1-.7 1-1.5s-.4-1.5-1-1.5c-.5 0-1 .7-1 1.5zM436.4 473.4c-.7 2.8.2 4.9 1.7 4.1 1.2-.8 1.2-6.5-.1-6.5-.5 0-1.2 1.1-1.6 2.4zM289 479c0 .5.5 1 1 1 .6 0 1-.5 1-1 0-.6-.4-1-1-1-.5 0-1 .4-1 1zM333.2 480.2c.7 1.9 3.8 2.2 3.8.4 0-1-.9-1.6-2.1-1.6-1.2 0-1.9.5-1.7 1.2zM418.5 480c-.3.5.1 1 .9 1 .9 0 1.6-.5 1.6-1 0-.6-.4-1-.9-1-.6 0-1.3.4-1.6 1zM371.7 484.4c-.3.8-.3 1.7 0 2 .7.7 3.3-1.3 3.3-2.5 0-1.5-2.7-1-3.3.5zM431 485.6c0 .9.5 1.4 1.2 1.2 1.8-.6 2.1-2.8.4-2.8-.9 0-1.6.7-1.6 1.6zM382 488c0 1.1.4 2 .9 2 1.1 0 2.2-2.6 1.4-3.4-1.2-1.2-2.3-.5-2.3 1.4zM449 487.2c0 1.8 1.8 3.4 2.8 2.4.3-.4-.2-1.4-1.1-2.3-1.6-1.6-1.7-1.6-1.7-.1zM302 488c0 .5.5 1 1 1 .6 0 1-.5 1-1 0-.6-.4-1-1-1-.5 0-1 .4-1 1zM323.5 488c-.8 1.3.4 3.2 1.6 2.5 1.2-.8 1.2-3.5 0-3.5-.6 0-1.3.4-1.6 1zM394.6 491.9c-.4.7-.5 1.5-.2 1.8.9.9 1.9-.4 1.4-1.8-.4-1.1-.6-1.1-1.2 0zM323.7 494.4c-.6 1.5.1 2.6 1.5 2.6 1.1 0 1-2.7-.1-3.4-.5-.3-1.1 0-1.4.8zM374.7 493.7c-1.3 1.2-.7 3.3.8 3.3.8 0 1.5-.9 1.5-2 0-2-1.1-2.6-2.3-1.3zM347.5 494.9c-.6 1.1 3.3 3.6 4.2 2.7.7-.7-1.6-3.6-2.8-3.6-.4 0-1 .4-1.4.9zM336.5 496.6c-1.2 1.3-1.3 1.9-.4 3.1 1.1 1.2 1.5 1.1 3.2-.5 1.1-1.1 1.6-2.5 1.3-3.1-1-1.5-2.2-1.4-4.1.5zM419 496.6c0 .8.5 1.2 1 .9.6-.4.8-1.1.5-1.6-.9-1.4-1.5-1.1-1.5.7zM399.4 498.4c-.3.9-.3 2.4.1 3.3.6 1.7.7 1.7 1.6 0 .6-.9 2-1.7 3.1-1.7 2.6 0 1.4-1.4-2-2.5-1.5-.4-2.4-.2-2.8.9zM364 500c-.9.6-1 1-.3 1 .6 0 1.5-.5 1.8-1 .8-1.2.4-1.2-1.5 0zM379.5 500c-.3.5.1 1 .9 1 .9 0 1.6-.5 1.6-1 0-.6-.4-1-.9-1-.6 0-1.3.4-1.6 1zM410 502.5c-.7.8-.9 2.2-.5 3.2.6 1.5.8 1.5 1.3.3.2-.8.9-2 1.4-2.7 1.4-1.7-.8-2.5-2.2-.8zM364.3 503.5c-.9 2.4.1 2.7 2 .5 1.4-1.7 1.5-2 .2-2-.9 0-1.8.7-2.2 1.5zM352 505.5c.7.8 1.9 1.5 2.7 1.5 1.3 0 1.3-.3.3-1.5-.7-.8-1.9-1.5-2.7-1.5-1.3 0-1.3.3-.3 1.5zM416.3 505.2c-1.3.6-2.3 1.7-2.3 2.4 0 1.7 4.6-.2 5.4-2.2.6-1.6-.1-1.7-3.1-.2zM383 506c0 .5.5 1 1 1 .6 0 1-.5 1-1 0-.6-.4-1-1-1-.5 0-1 .4-1 1zM389 505.8c0 1.3 2.3 3.2 3.7 3.2 1.1 0 1.1-.5.3-2-1-1.9-4-2.8-4-1.2zM374.2 509.2c-1.6 1.6-1.5 3.8.2 3.8 1.3 0 2.6-2 2.6-4.1 0-1.3-1.4-1.1-2.8.3zM211 567c-1 .7 1.4 1 7.8 1 6 0 9.1-.4 8.7-1-.8-1.3-14.5-1.3-16.5 0zM205.9 569.7c-1.3 1.7-1.3 1.7.6.3 1.1-.8 2.2-1.6 2.4-1.7.2-.2 0-.3-.6-.3s-1.7.8-2.4 1.7z"/></svg>